<svg width="800" height="800" viewBox="0 0 800 800" fill="none" xmlns="http://www.w3.org/2000/svg">
<g clip-path="url(#clip0_5_394)">
<path d="M233.333 500L333.333 400L233.333 300M433.333 500H566.667M733.333 400C733.333 584.093 584.093 733.333 400 733.333C215.905 733.333 66.6667 584.093 66.6667 400C66.6667 215.905 215.905 66.6665 400 66.6665C584.093 66.6665 733.333 215.905 733.333 400Z" stroke="url(#paint0_radial_5_394)" stroke-width="66.6667" stroke-linecap="round" stroke-linejoin="round"/>
<path d="M439.981 321.6V401.12C439.981 403.253 440.675 404.96 442.061 406.24C443.448 407.413 445.315 408 447.661 408H485.421L486.861 430.56C478.861 431.52 470.435 432.053 461.581 432.16C452.728 432.373 443.981 432.48 435.341 432.48C427.341 432.48 421.101 430.24 416.621 425.76C412.248 421.28 410.061 415.467 410.061 408.32V321.6H439.981ZM543.321 320C552.388 320 560.068 320.907 566.361 322.72C572.761 324.533 577.881 327.573 581.721 331.84C585.668 336.107 588.495 341.92 590.201 349.28C592.015 356.533 592.921 365.707 592.921 376.8C592.921 387.893 592.015 397.12 590.201 404.48C588.495 411.733 585.668 417.493 581.721 421.76C577.881 426.027 572.761 429.067 566.361 430.88C560.068 432.693 552.388 433.6 543.321 433.6C534.468 433.6 526.308 433.44 518.841 433.12C511.481 432.8 504.495 432.427 497.881 432L510.201 410.4C514.041 410.72 518.788 410.987 524.441 411.2C530.095 411.307 536.388 411.36 543.321 411.36C547.908 411.36 551.481 410.4 554.041 408.48C556.708 406.56 558.575 403.093 559.641 398.08C560.708 393.067 561.241 385.973 561.241 376.8C561.241 367.627 560.708 360.533 559.641 355.52C558.575 350.507 556.708 347.04 554.041 345.12C551.481 343.2 547.908 342.24 543.321 342.24C536.815 342.24 531.001 342.24 525.881 342.24C520.868 342.24 516.015 342.24 511.321 342.24L497.881 321.6C504.601 321.173 511.588 320.8 518.841 320.48C526.201 320.16 534.361 320 543.321 320ZM527.961 321.6V432H497.881V321.6H527.961Z" fill="#2B3D4F"/>
</g>
<defs>
<radialGradient id="paint0_radial_5_394" cx="0" cy="0" r="1" gradientUnits="userSpaceOnUse" gradientTransform="translate(733 67) rotate(135) scale(941.866)">
<stop stop-color="#48526C"/>
<stop offset="0.494792" stop-color="#2B3D4F"/>
<stop offset="0.958333" stop-color="#6A6787"/>
</radialGradient>
<clipPath id="clip0_5_394">
<rect width="800" height="800" fill="white"/>
</clipPath>
</defs>
</svg>
